<svg width="33" height="32" viewBox="0 0 33 32" fill="none" xmlns="http://www.w3.org/2000/svg">
<path fill-rule="evenodd" clip-rule="evenodd" d="M11.8025 4.18788L8.65946 6.32617C11.8025 4.18788 11.8025 4.18798 11.8026 4.18812L11.803 4.1886L11.8041 4.1903L11.8084 4.1966L11.8247 4.22061L11.8873 4.31285C11.942 4.39343 12.022 4.51148 12.1242 4.66254C12.3286 4.96462 12.6217 5.3989 12.9781 5.92969C13.6521 6.93339 14.5545 8.28513 15.5123 9.74232C15.5487 9.36011 15.5863 8.98209 15.6214 8.63625C15.6721 8.13756 15.7194 7.68945 15.754 7.36602C15.7713 7.20416 15.7855 7.07319 15.7954 6.98232L15.8068 6.87715L15.8099 6.84922L15.8107 6.8418L15.8109 6.83977L15.811 6.83918L15.811 6.83899C15.811 6.83893 15.811 6.83888 19.5895 7.2557L15.811 6.83888L16.2279 3.06038L23.7849 3.89403L23.368 7.67248L23.368 7.67251L23.368 7.67252L23.368 7.67278L23.3679 7.67416L23.3672 7.68027L23.3644 7.70546L23.3536 7.80475C23.3441 7.89154 23.3305 8.01788 23.3137 8.17464C23.2801 8.48843 23.2343 8.92274 23.1853 9.40481C23.1642 9.61264 23.1428 9.82654 23.1217 10.0414C23.407 10.0063 23.6926 9.97035 23.9783 9.93352C25.0422 9.79639 25.4279 9.73186 26.1784 9.60632L26.1784 9.60631L26.1785 9.6063C26.4586 9.55945 26.7895 9.50409 27.2254 9.43329L30.9777 8.82389L32.1965 16.3284L28.4442 16.9378C28.0705 16.9985 27.7662 17.0494 27.4937 17.095L27.4925 17.0952L27.4922 17.0952C26.69 17.2295 26.1627 17.3177 24.9503 17.474C24.1589 17.576 23.3663 17.6721 22.5725 17.7615C22.5428 18.4003 22.521 19.0363 22.5107 19.6746C22.5081 19.8372 22.5037 20.0096 22.4998 20.1646L22.4968 20.2849C22.492 20.4791 22.4883 20.6548 22.4875 20.8254C22.4857 21.1721 22.4964 21.4366 22.5204 21.6474L22.524 21.6777C22.7101 21.7397 22.97 21.7989 23.2961 21.8333C24.1049 21.9185 24.8562 21.8069 25.2003 21.6889L28.796 20.4555L31.2628 27.6471L27.667 28.8804C26.1161 29.4124 24.2295 29.5766 22.4991 29.3942C20.8535 29.2208 18.5952 28.6521 16.9487 26.9787C16.2469 26.2655 15.7911 25.4719 15.4922 24.7064L14.1078 21.9019C13.7605 21.1984 13.0251 19.9644 12.1046 18.4934C11.6693 18.5101 11.0842 18.5566 10.3679 18.615L10.2949 18.621C9.71586 18.6682 9.04121 18.7233 8.43647 18.7508C8.23113 19.8482 8.10674 20.9 8.10674 21.941V25.7424H0.503906V21.941C0.503906 18.5045 1.41027 15.1496 2.1332 12.4737L2.1333 12.4734L2.13336 12.4732C2.18413 12.2852 2.234 12.1006 2.28259 11.9196C2.72248 10.2805 3.35056 8.32671 3.85123 6.76927L3.85123 6.76926L3.85124 6.76923C4.01804 6.25037 4.17069 5.77551 4.29753 5.37093L4.93675 3.33204L7.0108 2.81826L7.74541 2.63628L10.314 2L11.8025 4.18788Z" fill="#060607"/>
</svg>
